<?xml version="1.0" encoding="UTF-8"?>
<svg version="1.1" xmlns="http://www.w3.org/2000/svg" width="1024" height="1024">
<path d="M0 0 C1.31314682 -0.00705963 2.62629364 -0.01411926 3.97923279 -0.02139282 C8.19970246 -0.04093958 12.42011431 -0.04608521 16.640625 -0.046875 C17.35990299 -0.04716957 18.07918098 -0.04746414 18.82025528 -0.04776764 C40.31556838 -0.0491905 61.56639756 0.15136694 82.890625 3.203125 C83.6036377 3.30258423 84.31665039 3.40204346 85.05126953 3.5045166 C136.49110975 10.6858371 185.45206129 25.05137528 232.890625 46.203125 C233.78507324 46.59999512 234.67952148 46.99686523 235.60107422 47.40576172 C249.18225982 53.47908559 262.03255283 60.73954473 274.890625 68.203125 C276.49606627 69.12765189 278.1015333 70.05213404 279.70703125 70.9765625 C287.9748373 75.7621866 296.03733394 80.75569895 303.890625 86.203125 C304.51372559 86.63318848 305.13682617 87.06325195 305.77880859 87.50634766 C320.83369904 97.91837798 335.4429863 108.84402302 349.28710938 120.82617188 C350.94968831 122.25384319 352.62884245 123.6597684 354.3125 125.0625 C362.4461377 131.87337401 370.00771972 139.11195829 377.41943359 146.69921875 C380.68535477 150.03776412 384.00688832 153.31860318 387.34375 156.5859375 C393.92071048 163.05171624 400.22029256 169.49972539 405.93359375 176.75 C407.75647379 179.0349674 409.66031761 181.17971699 411.640625 183.328125 C417.25958621 189.58382734 422.2443256 196.35050117 427.28857422 203.0703125 C428.73402936 204.994649 430.18859511 206.91171912 431.64453125 208.828125 C449.62310801 232.70388852 464.44184031 258.56855804 477.890625 285.203125 C478.36000488 286.13108887 478.82938477 287.05905273 479.31298828 288.01513672 C503.54487919 336.30068046 518.70988943 388.97721148 526.203125 442.390625 C526.35031982 443.43710205 526.49751465 444.4835791 526.64916992 445.56176758 C527.11333033 449.1042159 527.51715861 452.65023356 527.890625 456.203125 C527.97676056 457.00679504 528.06289612 457.81046509 528.15164185 458.63848877 C529.91657383 475.62042852 530.25467092 492.54766627 530.20868301 509.60852051 C530.20303927 511.73543371 530.20022107 513.86233894 530.19760132 515.98925781 C530.16138501 536.21291642 529.76011954 556.15055491 526.890625 576.203125 C526.64119141 578.08161133 526.64119141 578.08161133 526.38671875 579.99804688 C514.94064559 665.50445264 482.25297533 746.78704859 421.890625 828.203125 C421.06957275 829.23397217 421.06957275 829.23397217 420.23193359 830.28564453 C414.30649475 837.72511702 408.29542773 845.04341224 401.859375 852.05078125 C400.03359179 854.04682599 398.27112435 856.08288166 396.515625 858.140625 C391.91654081 863.42742272 386.87536637 868.28455276 381.890625 873.203125 C379.077322 876.0026373 376.2842065 878.82023546 373.5078125 881.65625 C367.04203376 888.23321048 360.59402461 894.53279256 353.34375 900.24609375 C351.0587826 902.06897379 348.91403301 903.97281761 346.765625 905.953125 C340.50992266 911.57208621 333.74324883 916.5568256 327.0234375 921.60107422 C325.099101 923.04652936 323.18203088 924.50109511 321.265625 925.95703125 C297.38986148 943.93560801 271.52519196 958.75434031 244.890625 972.203125 C243.96266113 972.67250488 243.03469727 973.14188477 242.07861328 973.62548828 C173.52021563 1008.03122308 96.89274008 1024.73586673 20.40399933 1024.52118301 C18.35614442 1024.51552981 16.30829784 1024.51271747 14.26043701 1024.51010132 C-6.00843906 1024.47248142 -26.00009663 1023.97644207 -46.109375 1021.203125 C-47.38022949 1021.03683594 -48.65108398 1020.87054687 -49.96044922 1020.69921875 C-102.2779648 1013.72785332 -153.5013317 999.11368654 -201.109375 976.203125 C-202.16688965 975.69555664 -203.2244043 975.18798828 -204.31396484 974.66503906 C-243.52829408 955.72407023 -280.68556664 932.18752304 -313.5703125 903.53173828 C-315.20406169 902.12138563 -316.85735824 900.73689086 -318.515625 899.35546875 C-326.65574951 892.54192487 -334.22182234 885.29904916 -341.63818359 877.70703125 C-344.90410477 874.36848588 -348.22563832 871.08764682 -351.5625 867.8203125 C-358.13946048 861.35453376 -364.43904256 854.90652461 -370.15234375 847.65625 C-371.97522379 845.3712826 -373.87906761 843.22653301 -375.859375 841.078125 C-381.47833621 834.82242266 -386.4630756 828.05574883 -391.50732422 821.3359375 C-392.95277936 819.411601 -394.40734511 817.49453088 -395.86328125 815.578125 C-413.84185801 791.70236148 -428.66059031 765.83769196 -442.109375 739.203125 C-442.81344482 737.8111792 -442.81344482 737.8111792 -443.53173828 736.39111328 C-478.32866877 667.05320171 -494.63456182 590.03995836 -494.421875 512.765625 C-494.41965233 511.33719896 -494.41747582 509.90877285 -494.41534424 508.48034668 C-494.3728565 487.92752254 -494.07595284 467.58359346 -491.109375 447.203125 C-491.0075592 446.49764526 -490.90574341 445.79216553 -490.80084229 445.06530762 C-483.31718516 393.55609631 -469.39118616 344.74600123 -448.109375 297.203125 C-447.71395508 296.31302734 -447.31853516 295.42292969 -446.91113281 294.50585938 C-440.83628963 280.91922864 -433.57163983 268.06829372 -426.109375 255.203125 C-425.20801565 253.63299483 -424.30695235 252.06269465 -423.40625 250.4921875 C-418.00955576 241.1386843 -412.25563305 232.08159251 -406.109375 223.203125 C-405.71282715 222.63029785 -405.3162793 222.0574707 -404.90771484 221.46728516 C-394.70426536 206.81157323 -383.81743903 192.68628261 -372.109375 179.203125 C-371.15804687 178.10097656 -371.15804687 178.10097656 -370.1875 176.9765625 C-368.50663039 175.04124933 -366.81117344 173.1200492 -365.109375 171.203125 C-364.42488281 170.42582031 -363.74039063 169.64851562 -363.03515625 168.84765625 C-357.6077896 162.73831683 -351.92979476 156.93681665 -346.109375 151.203125 C-343.29596502 148.40373533 -340.50290808 145.5860478 -337.7265625 142.75 C-331.27825458 136.19079597 -324.85057322 129.91266879 -317.6171875 124.21875 C-315.1894086 122.26745107 -312.93972497 120.21164239 -310.671875 118.078125 C-281.0303368 91.11844026 -244.68566026 70.16691623 -209.109375 52.203125 C-207.7174292 51.49905518 -207.7174292 51.49905518 -206.29736328 50.78076172 C-143.51312136 19.27276195 -70.44710605 0.25244786 0 0 Z " fill="#0077B5" transform="translate(494.109375,-0.203125)"/>
<path d="M0 0 C0.98162109 0.0027594 1.96324219 0.0055188 2.97460938 0.00836182 C35.37376028 0.17590285 66.52098011 7.52179682 94.9375 23.5 C96.12820466 24.14192807 97.31961799 24.78254329 98.51171875 25.421875 C132.74455183 44.06578998 161.22182337 73.86081114 178.9375 108.5 C184.36788637 107.86155299 189.38764395 106.60675519 194.625 105.0625 C237.76205456 92.76394372 283.85938744 100.30308059 322.96875 121.39501953 C363.28645355 144.02373062 392.19622361 182.32637207 404.9375 226.5 C405.27394531 227.65242187 405.61039063 228.80484375 405.95703125 229.9921875 C409.52704964 243.25225579 410.31550899 256.42011883 410.25 270.0625 C410.24726578 271.24579895 410.24726578 271.24579895 410.24447632 272.45300293 C410.17256242 290.97633597 408.20303952 307.9911603 401.9375 325.5 C402.54190918 325.60304443 403.14631836 325.70608887 403.76904297 325.81225586 C410.13814633 326.98047672 416.0269196 328.73263861 422.0625 331.0625 C422.97193359 331.41328613 423.88136719 331.76407227 424.81835938 332.12548828 C442.98820731 339.33923668 457.75484352 350.15013295 471.9375 363.5 C472.83855469 364.32177734 472.83855469 364.32177734 473.7578125 365.16015625 C491.51492971 381.96747417 504.16469403 405.93991877 509.9375 429.5 C510.72813475 432.20461479 511.52356041 434.90771221 512.32421875 437.609375 C514.1456545 446.19448618 514.12386518 454.93221732 514.12280273 463.67504883 C514.12497748 465.66687133 514.14345832 467.65865426 514.16210938 469.65039062 C514.18149486 482.73559164 512.8125528 495.24683832 508.875 507.75 C508.57118408 508.72453125 508.26736816 509.6990625 507.9543457 510.703125 C500.88210058 532.57670872 489.29935696 550.58775969 473.9375 567.5 C473.29683594 568.22445312 472.65617188 568.94890625 471.99609375 569.6953125 C452.27891884 590.77989775 424.01704253 604.16526338 395.9375 609.5 C395.1048576 609.66677929 394.2722152 609.83355857 393.41434121 610.00539178 C383.14593857 611.83640117 373.02032572 611.78253065 362.62054443 611.76069641 C360.5714133 611.76372075 358.52228329 611.76761164 356.47315526 611.77228898 C350.86874546 611.78254138 345.26439983 611.78039418 339.65998483 611.77610838 C333.60529156 611.77363614 327.55061354 611.78266154 321.4959259 611.79014587 C309.64408116 611.80288121 297.79225852 611.80469378 285.94041005 611.80234561 C276.30413532 611.80050989 266.66786722 611.8022784 257.03159332 611.80657005 C255.64504294 611.80717247 254.25849256 611.80777366 252.87194218 611.80837366 C250.78229851 611.80928095 248.69265484 611.81018962 246.60301118 611.81110601 C227.18478684 611.81953058 207.76656499 611.82387468 188.34833908 611.81969929 C187.61694445 611.81954291 186.88554983 611.81938654 186.13199172 611.81922542 C182.42536283 611.81841969 178.71873395 611.81757392 175.01210508 611.81671212 C174.27601484 611.81654103 173.53992459 611.81636994 172.78152859 611.81619367 C171.29297666 611.81584701 169.80442472 611.81549848 168.31587279 611.81514808 C145.15962279 611.80979219 122.00341087 611.81771958 98.84716797 611.83618164 C72.80399661 611.8569213 46.76084885 611.86762058 20.71766877 611.86360615 C17.93800243 611.86321084 15.15833609 611.86284929 12.37866974 611.86250877 C11.69429465 611.86241804 11.00991955 611.86232731 10.30480582 611.86223383 C-0.00349401 611.86107035 -10.31176992 611.86769714 -20.62006378 611.87832069 C-32.35106706 611.89039846 -44.08202705 611.89162508 -55.81303439 611.87953053 C-61.79385419 611.87365073 -67.77457153 611.87251759 -73.75538445 611.88453293 C-79.23924067 611.89542151 -84.72290924 611.892253 -90.2067568 611.87827124 C-92.18175847 611.8756325 -94.156775 611.87796474 -96.13176206 611.88600711 C-134.70227841 612.03206471 -170.32349445 598.48647757 -198.140625 571.421875 C-199.11713964 570.4504797 -200.09119549 569.47660494 -201.0625 568.5 C-201.94421875 567.61828125 -202.8259375 566.7365625 -203.734375 565.828125 C-226.04141273 542.41266303 -241.02531301 507.91209342 -242.0625 475.5 C-242.1140625 474.20320313 -242.165625 472.90640625 -242.21875 471.5703125 C-243.32628415 430.60993131 -227.14475805 393.99241469 -199.43554688 364.421875 C-186.28665991 350.86157104 -169.93870833 340.76849403 -153.0625 332.5 C-153.44019531 332.108125 -153.81789063 331.71625 -154.20703125 331.3125 C-164.7578983 319.8473892 -172.85860445 306.24520188 -180.0625 292.5 C-180.65546875 291.38109375 -181.2484375 290.2621875 -181.859375 289.109375 C-195.5446304 261.61331139 -201.23672273 232.52928499 -201.30273438 202.08691406 C-201.31240503 199.40137327 -201.34350016 196.71661114 -201.375 194.03125 C-201.44370806 182.84663234 -200.43925519 172.42521924 -198.0625 161.5 C-197.86366211 160.54625488 -197.66482422 159.59250977 -197.45996094 158.60986328 C-189.849606 123.57598796 -173.31632601 91.98054567 -149.015625 65.640625 C-147.43347392 63.90658742 -145.95303119 62.15300618 -144.5 60.3125 C-141.31825756 56.64125873 -137.76543694 53.63279268 -134.0625 50.5 C-133.11246094 49.66210938 -132.16242188 48.82421875 -131.18359375 47.9609375 C-109.8982616 29.30502872 -84.19590451 15.5166877 -57.0625 7.5 C-55.95390625 7.16355469 -54.8453125 6.82710937 -53.703125 6.48046875 C-36.0249043 1.41599995 -18.32892511 -0.09408057 0 0 Z " fill="#6AC5EF" transform="translate(379.0625,172.5)"/>
<path d="M0 0 C3.7629696 2.07573839 7.7065685 3.01868956 11.8359375 4.1484375 C48.0186539 14.59276231 79.07071041 38.60060191 97.61572266 71.55615234 C103.72795794 82.82983076 108.59273293 93.98994018 111.6484375 106.4609375 C112.43907225 109.16555229 113.23449791 111.86864971 114.03515625 114.5703125 C115.856592 123.15542368 115.83480268 131.89315482 115.83374023 140.63598633 C115.83591498 142.62780883 115.85439582 144.61959176 115.87304688 146.61132812 C115.89243236 159.69652914 114.5234903 172.20777582 110.5859375 184.7109375 C110.28212158 185.68546875 109.97830566 186.66 109.6652832 187.6640625 C102.59303808 209.53764622 91.01029446 227.54869719 75.6484375 244.4609375 C75.00777344 245.18539063 74.36710937 245.90984375 73.70703125 246.65625 C54.00945798 267.71987422 25.71759978 281.16891243 -2.3515625 286.4609375 C-3.67583261 286.71145774 -3.67583261 286.71145774 -5.02685565 286.96703899 C-13.82604865 288.47731356 -22.44371504 288.73849406 -31.34114075 288.70144653 C-32.91978531 288.7023205 -34.49842958 288.70407499 -36.07707232 288.70662487 C-40.38033668 288.71106483 -44.68350015 288.70314126 -48.98675168 288.69306874 C-53.64028153 288.68438782 -58.29380624 288.68735767 -62.94734192 288.68887329 C-70.9984095 288.68991922 -79.04944453 288.68367324 -87.10050392 288.67239761 C-98.74081193 288.65610585 -110.38110429 288.65093085 -122.02142247 288.64842163 C-140.90955423 288.64405029 -159.79766866 288.63075642 -178.68579102 288.61181641 C-197.02791253 288.59344308 -215.37002933 288.57929369 -233.7121582 288.57080078 C-234.84380112 288.57027533 -235.97544403 288.56974989 -237.14137916 288.56920852 C-242.81880795 288.56659834 -248.49623679 288.56407095 -254.17366564 288.56158471 C-301.23297659 288.54086968 -348.29226865 288.50565944 -395.3515625 288.4609375 C-396.32653507 285.90211374 -397.29783687 283.34199559 -398.26708984 280.78100586 C-398.5419371 280.06079002 -398.81678436 279.34057419 -399.09996033 278.59853363 C-407.57996991 256.1408166 -405.47185825 228.95011386 -395.68359375 207.21484375 C-395.02423828 205.85166016 -395.02423828 205.85166016 -394.3515625 204.4609375 C-393.92230469 203.56246094 -393.49304688 202.66398438 -393.05078125 201.73828125 C-380.94222247 178.03279294 -358.72115206 157.91746735 -333.3515625 149.4609375 C-333.25359375 148.26339844 -333.155625 147.06585937 -333.0546875 145.83203125 C-330.24774732 114.19105133 -317.86763272 89.42425349 -293.8671875 68.48046875 C-283.14894565 59.87591745 -270.68625808 53.50193813 -257.5390625 49.5859375 C-256.85827637 49.38274902 -256.17749023 49.17956055 -255.47607422 48.97021484 C-237.49934435 43.94890336 -215.93154506 44.38275204 -198.3515625 50.4609375 C-197.33545898 50.80632568 -197.33545898 50.80632568 -196.29882812 51.15869141 C-188.030985 53.99909558 -180.04469626 57.28149464 -172.3515625 61.4609375 C-171.96291016 60.1925 -171.96291016 60.1925 -171.56640625 58.8984375 C-161.43266278 30.22417945 -136.31807732 8.30066558 -109.56005859 -4.54150391 C-76.33059821 -19.5509639 -31.32612909 -20.50248316 0 0 Z " fill="#69C4EF" transform="translate(777.3515625,495.5390625)"/>
<path d="M0 0 C0.98162109 0.0027594 1.96324219 0.0055188 2.97460938 0.00836182 C35.37376028 0.17590285 66.52098011 7.52179682 94.9375 23.5 C96.12820466 24.14192807 97.31961799 24.78254329 98.51171875 25.421875 C131.86158507 43.58490786 162.85359777 73.7823086 178.9375 108.5 C178.9375 109.16 178.9375 109.82 178.9375 110.5 C177.83535156 110.96148437 176.73320313 111.42296875 175.59765625 111.8984375 C131.92449499 130.52532727 101.89724019 161.22534599 80.9375 203.5 C80.27122945 204.83353132 79.60470313 206.16693504 78.9375 207.5 C74.86421069 206.61319532 71.95965845 205.41620632 68.9375 202.5 C68.04112458 198.77197838 67.70671342 195.38202872 67.48168945 191.57617188 C66.51482641 175.47150503 57.53217918 160.44841837 45.9375 149.5 C27.88431964 134.73445951 8.65463043 131.81683857 -14.0625 133.5 C-19.40101505 134.33920042 -24.19608684 136.17335721 -29.0625 138.5 C-30.10148438 138.99628906 -31.14046875 139.49257813 -32.2109375 140.00390625 C-49.97282985 149.47843752 -61.01420998 164.54509109 -67.0625 183.5 C-67.27519531 184.12261719 -67.48789062 184.74523437 -67.70703125 185.38671875 C-68.17897685 187.73143022 -68.17897685 187.73143022 -67.88671875 191.07421875 C-67.68745575 195.33482396 -67.56516609 199.44906529 -69.0625 203.5 C-72.73696936 207.09834086 -76.71937125 209.22668056 -81.27490234 211.53515625 C-85.63213002 213.88694043 -89.31833908 217.29425561 -93.0625 220.5 C-93.89394531 221.20898438 -94.72539062 221.91796875 -95.58203125 222.6484375 C-122.27028826 246.0160358 -140.3278408 280.18302035 -142.75073242 315.73339844 C-142.87329345 317.79498709 -142.96688657 319.85854422 -143.02856445 321.92285156 C-143.16911441 324.57400072 -143.34092635 326.94467029 -144.0625 329.5 C-146.93297811 331.76616693 -148.53728653 332.51688428 -152.1796875 332.4765625 C-172.15049933 322.11825761 -185.91857941 282.67726881 -192.24267578 263.14013672 C-198.55430386 242.81436364 -201.25665681 223.33635286 -201.30273438 202.08691406 C-201.31240503 199.40137327 -201.34350016 196.71661114 -201.375 194.03125 C-201.44370806 182.84663234 -200.43925519 172.42521924 -198.0625 161.5 C-197.86366211 160.54625488 -197.66482422 159.59250977 -197.45996094 158.60986328 C-189.849606 123.57598796 -173.31632601 91.98054567 -149.015625 65.640625 C-147.43347392 63.90658742 -145.95303119 62.15300618 -144.5 60.3125 C-141.31825756 56.64125873 -137.76543694 53.63279268 -134.0625 50.5 C-133.11246094 49.66210938 -132.16242188 48.82421875 -131.18359375 47.9609375 C-109.8982616 29.30502872 -84.19590451 15.5166877 -57.0625 7.5 C-55.95390625 7.16355469 -54.8453125 6.82710937 -53.703125 6.48046875 C-36.0249043 1.41599995 -18.32892511 -0.09408057 0 0 Z " fill="#FECB07" transform="translate(379.0625,172.5)"/>
<path d="M0 0 C-4.04013919 0 -6.90324025 -1.79657498 -10.4375 -3.5625 C-20.05080065 -8.18467554 -29.76860965 -11.97480866 -40 -15 C-40.87430664 -15.25974609 -41.74861328 -15.51949219 -42.64941406 -15.78710938 C-57.17514286 -19.87132224 -71.44858427 -20.47115551 -86.4375 -20.5 C-87.32270325 -20.50458221 -88.20790649 -20.50916443 -89.11993408 -20.5138855 C-126.91050097 -20.59142753 -164.58618345 -8.07679391 -194 16 C-194.52932129 16.42925781 -195.05864258 16.85851562 -195.60400391 17.30078125 C-219.80180824 36.99386387 -235.25244355 60.33196186 -249 88 C-249.98097656 87.49210938 -250.96195312 86.98421875 -251.97265625 86.4609375 C-289.37093135 67.29660075 -329.73745669 59.2397788 -370.82299805 71.88818359 C-405.96926416 83.34901328 -434.01750164 105.03730193 -454 136 C-454.64839844 136.98484375 -455.29679688 137.9696875 -455.96484375 138.984375 C-469.91310593 161.37750339 -474.90401206 187.04239098 -476 213 C-476.70382812 213.27972656 -477.40765625 213.55945313 -478.1328125 213.84765625 C-497.61851291 221.75895237 -514.46836574 231.84637554 -530 246 C-530.93457031 246.85078125 -531.86914062 247.7015625 -532.83203125 248.578125 C-558.78572163 273.38079335 -575.22491477 308.87452477 -576.23828125 344.765625 C-576.53399491 364.84605425 -574.95608348 383.38966628 -567.85546875 402.296875 C-567 405 -567 405 -568 407 C-589.86169702 373.32730823 -597.89975973 334.48338447 -590 295 C-581.23311108 256.05525683 -557.26130938 223.62379967 -524 202 C-515.06050682 196.39799798 -505.87838844 191.72310473 -496 188 C-495.96559814 187.40799805 -495.93119629 186.81599609 -495.89575195 186.20605469 C-493.26386297 143.851004 -477.2549833 108.67530559 -446.3125 79.4375 C-441.99605039 75.64846224 -437.40168285 72.33150569 -432.6875 69.0625 C-432.00534424 68.5893335 -431.32318848 68.11616699 -430.62036133 67.62866211 C-427.18442746 65.30153053 -423.96291017 63.3414106 -420 62 C-420.05800781 61.01902344 -420.11601562 60.03804688 -420.17578125 59.02734375 C-420.89963524 41.30952325 -414.70532221 26.1173934 -402.875 12.8125 C-395.12953935 4.47964824 -385.69921451 -2.05926095 -375 -6 C-374.28489258 -6.26530518 -373.56978516 -6.53061035 -372.83300781 -6.80395508 C-365.96089357 -9.1113116 -359.64731798 -9.42127818 -352.4375 -9.3125 C-351.36564453 -9.31572266 -350.29378906 -9.31894531 -349.18945312 -9.32226562 C-333.86259527 -9.21914915 -320.02643766 -4.65640679 -308 5 C-307.16726563 5.64582031 -306.33453125 6.29164063 -305.4765625 6.95703125 C-295.98575312 14.82710242 -289.30919165 25.48488232 -285 37 C-284.608125 38.010625 -284.21625 39.02125 -283.8125 40.0625 C-281.89192983 47.00609983 -281.86814465 53.85050993 -282 61 C-281.0925 61.28875 -280.185 61.5775 -279.25 61.875 C-276.66901709 62.76841716 -274.41157674 63.75227117 -272 65 C-271.62415771 64.16359985 -271.62415771 64.16359985 -271.24072266 63.31030273 C-251.31137805 19.31661345 -217.36311035 -14.49602561 -172 -32 C-112.4688276 -52.13515002 -47.87631968 -41.20747682 0 0 Z " fill="#A7DAED" transform="translate(730,314)"/>
<path d="M0 0 C3.23024422 2.65143289 6.35452234 5.40387123 9.4609375 8.19921875 C10.51474609 9.12734375 10.51474609 9.12734375 11.58984375 10.07421875 C23.34254336 21.06630523 32.08360635 35.03550546 39.4609375 49.19921875 C37.12654799 51.5458089 34.79158096 53.88541939 32.390625 56.1640625 C25.66662863 62.61961034 19.98632246 69.71799781 14.4609375 77.19921875 C14.03135742 77.77913574 13.60177734 78.35905273 13.15917969 78.95654297 C6.85403233 87.5988177 2.080732 96.65796879 -2.31665039 106.40649414 C-2.70973389 107.27395264 -3.10281738 108.14141113 -3.5078125 109.03515625 C-4.02504883 110.20377197 -4.02504883 110.20377197 -4.55273438 111.39599609 C-5.5390625 113.19921875 -5.5390625 113.19921875 -7.5390625 114.19921875 C-11.40691793 113.52811697 -13.92680744 112.12554264 -16.5390625 109.19921875 C-17.35792026 105.49574841 -17.7027344 102.04455479 -17.94458008 98.27563477 C-19.01199261 82.16726198 -27.92894165 67.16221811 -39.5390625 56.19921875 C-57.59224286 41.43367826 -76.82193207 38.51605732 -99.5390625 40.19921875 C-104.87757755 41.03841917 -109.67264934 42.87257596 -114.5390625 45.19921875 C-116.09753906 45.94365234 -116.09753906 45.94365234 -117.6875 46.703125 C-135.44939235 56.17765627 -146.49077248 71.24430984 -152.5390625 90.19921875 C-152.85810547 91.13314453 -152.85810547 91.13314453 -153.18359375 92.0859375 C-153.65553935 94.43064897 -153.65553935 94.43064897 -153.36328125 97.7734375 C-153.16401825 102.03404271 -153.04172859 106.14828404 -154.5390625 110.19921875 C-158.21353186 113.79755961 -162.19593375 115.92589931 -166.75146484 118.234375 C-171.10869252 120.58615918 -174.79490158 123.99347436 -178.5390625 127.19921875 C-179.78623047 128.26269531 -179.78623047 128.26269531 -181.05859375 129.34765625 C-192.19830375 139.10131938 -202.85327362 150.827641 -209.5390625 164.19921875 C-210.1990625 164.19921875 -210.8590625 164.19921875 -211.5390625 164.19921875 C-218.81125698 145.44213461 -222.93886005 128.21312977 -222.8515625 107.88671875 C-222.84973969 107.2094574 -222.84791687 106.53219604 -222.84603882 105.83441162 C-222.79844112 95.30183174 -222.17481294 85.42337972 -219.5390625 75.19921875 C-219.37277344 74.51827148 -219.20648438 73.83732422 -219.03515625 73.13574219 C-210.40100537 38.23138779 -187.06521828 8.37792214 -156.5546875 -10.27734375 C-107.47596197 -39.30747265 -44.68483686 -35.82469866 0 0 Z " fill="#F3EB4E" transform="translate(464.5390625,265.80078125)"/>
<path d="M0 0 C0.68031281 0.00054382 1.36062561 0.00108765 2.06155396 0.00164795 C13.11245798 0.04215772 23.35474297 0.90558124 33.875 4.375 C34.56577637 4.59994141 35.25655273 4.82488281 35.96826172 5.05664062 C52.08586792 10.44277738 68.00194667 17.93343951 79.875 30.375 C76.52505994 29.07191497 73.29740101 27.62646001 70.0625 26.0625 C62.89782383 22.79355623 55.46982305 20.43543268 47.875 18.375 C46.92012695 18.10953369 45.96525391 17.84406738 44.98144531 17.57055664 C36.68492001 15.43833701 28.91764209 14.94926243 20.375 15.0625 C19.15941406 15.05927734 17.94382812 15.05605469 16.69140625 15.05273438 C-15.9791509 15.24450392 -44.52047295 28.1541866 -68.125 50.375 C-69.02992188 51.18324219 -69.02992188 51.18324219 -69.953125 52.0078125 C-81.30251491 62.56168443 -88.30515308 76.70460588 -95.125 90.375 C-99.07543527 89.77601704 -102.00001569 88.52695226 -105.5 86.625 C-119.6363784 79.38271747 -134.08648649 75.9897978 -149.9375 76.125 C-151.09096924 76.13249268 -152.24443848 76.13998535 -153.43286133 76.14770508 C-181.65735798 76.50523002 -205.61128554 87.35125097 -225.875 106.6875 C-239.58947904 120.89960165 -248.95203437 138.86057432 -252.75 158.1875 C-252.95810303 159.22487305 -252.95810303 159.22487305 -253.17041016 160.28320312 C-253.97963582 164.61943118 -254.04234911 168.45180611 -253.8125 172.875 C-253.984375 175.7578125 -253.984375 175.7578125 -255.125 178.375 C-259.53245722 181.48552603 -264.16482553 183.50153254 -269.14111328 185.53417969 C-292.30219735 195.35042058 -309.92791538 217.49320225 -319.31591797 240.24365234 C-321.43149001 245.81665897 -322.85662446 251.55623763 -324.125 257.375 C-324.2993457 258.13611084 -324.47369141 258.89722168 -324.65332031 259.68139648 C-327.38024961 275.25396943 -326.03157684 292.4224757 -321.125 307.375 C-320.42158516 310.03386065 -319.77220594 312.70163133 -319.125 315.375 C-321.31173198 313.34778175 -322.74730522 311.499438 -324.0625 308.828125 C-324.40023438 308.1475 -324.73796875 307.466875 -325.0859375 306.765625 C-325.42882812 306.05921875 -325.77171875 305.3528125 -326.125 304.625 C-326.46789062 303.9340625 -326.81078125 303.243125 -327.1640625 302.53125 C-338.76566717 278.9737932 -341.05922981 252.30712837 -333.09375 227.11328125 C-327.8762831 212.50084863 -320.16154738 200.11730354 -310.125 188.375 C-309.55394531 187.70082031 -308.98289062 187.02664063 -308.39453125 186.33203125 C-298.629128 175.76330434 -285.29390908 167.87254697 -272.125 162.375 C-271.135 162.375 -270.145 162.375 -269.125 162.375 C-269.09921875 161.41722656 -269.0734375 160.45945312 -269.046875 159.47265625 C-267.98678464 131.46919544 -256.99595256 106.4665318 -236.78173828 86.89501953 C-223.50721144 74.71594436 -207.67267449 66.36788402 -190.125 62.375 C-189.22394531 62.15070312 -188.32289063 61.92640625 -187.39453125 61.6953125 C-160.62368655 56.05527884 -134.70578983 62.78071452 -111.125 75.375 C-111.03089844 74.694375 -110.93679688 74.01375 -110.83984375 73.3125 C-109.9618201 69.70444652 -108.4323867 66.62391095 -106.6875 63.375 C-106.33695557 62.72072021 -105.98641113 62.06644043 -105.62524414 61.39233398 C-101.81033359 54.49182176 -97.14429323 48.43276769 -92.125 42.375 C-91.49464844 41.60285156 -90.86429688 40.83070313 -90.21484375 40.03515625 C-76.51049746 23.7710004 -57.40396616 12.2694099 -37.4375 5.5 C-36.17377563 5.07037964 -36.17377563 5.07037964 -34.88452148 4.63208008 C-23.3508007 0.91855034 -12.07623145 -0.01637455 0 0 Z " fill="#A6DAEE" transform="translate(700.125,466.625)"/>
<path d="M0 0 C1.07185547 -0.00322266 2.14371094 -0.00644531 3.24804688 -0.00976562 C18.57490473 0.09335085 32.41106234 4.65609321 44.4375 14.3125 C45.27023437 14.95832031 46.10296875 15.60414063 46.9609375 16.26953125 C56.45174688 24.13960242 63.12830835 34.79738232 67.4375 46.3125 C67.829375 47.323125 68.22125 48.33375 68.625 49.375 C70.45511372 55.99156498 70.57943704 62.49952218 70.4375 69.3125 C66.21196689 67.97978328 62.27003034 66.35577527 58.25 64.5 C52.54640668 61.97130563 46.78349816 60.13814981 40.75 58.5625 C39.99114502 58.36422607 39.23229004 58.16595215 38.45043945 57.96166992 C36.11958436 57.37651697 33.78283872 56.83647135 31.4375 56.3125 C30.62982178 56.12341064 29.82214355 55.93432129 28.98999023 55.73950195 C20.65338643 53.98166636 12.35183371 53.95456397 3.875 54 C2.74025238 54.00422974 2.74025238 54.00422974 1.58258057 54.00854492 C-21.44528158 54.13761053 -43.02914078 58.41248621 -63.58398438 69.36376953 C-65.5625 70.3125 -65.5625 70.3125 -67.5625 70.3125 C-68.69921255 52.50400333 -63.48384516 37.42875916 -51.80664062 23.66479492 C-43.76574071 14.62165017 -33.96609786 7.51267782 -22.5625 3.3125 C-21.84739258 3.04719482 -21.13228516 2.78188965 -20.39550781 2.50854492 C-13.52339357 0.2011884 -7.20981798 -0.10877818 0 0 Z " fill="#F4EBDE" transform="translate(377.5625,304.6875)"/>
</svg>
